<svg viewBox="0 0 32 32" xmlns="http://www.w3.org/2000/svg" width="24" height="24" fill="#fff">
    <path d="M24,15H21a4,4,0,0,1-4-4V8a4,4,0,0,1,4-4h3a4,4,0,0,1,4,4v3A4,4,0,0,1,24,15ZM21,6a2,2,0,0,0-2,2v3a2,2,0,0,0,2,2h3a2,2,0,0,0,2-2V8a2,2,0,0,0-2-2Z"/>
    <path d="M11,15H8a4,4,0,0,1-4-4V8A4,4,0,0,1,8,4h3a4,4,0,0,1,4,4v3A4,4,0,0,1,11,15ZM8,6A2,2,0,0,0,6,8v3a2,2,0,0,0,2,2h3a2,2,0,0,0,2-2V8a2,2,0,0,0-2-2Z"/>
    <path d="M11,28H8a4,4,0,0,1-4-4V21a4,4,0,0,1,4-4h3a4,4,0,0,1,4,4v3A4,4,0,0,1,11,28ZM8,19a2,2,0,0,0-2,2v3a2,2,0,0,0,2,2h3a2,2,0,0,0,2-2V21a2,2,0,0,0-2-2Z"/>
    <path d="M24,28H21a4,4,0,0,1-4-4V21a4,4,0,0,1,4-4h3a4,4,0,0,1,4,4v3A4,4,0,0,1,24,28Zm-3-9a2,2,0,0,0-2,2v3a2,2,0,0,0,2,2h3a2,2,0,0,0,2-2V21a2,2,0,0,0-2-2Z"/>
</svg>
