<?xml version="1.0"?>
<svg width="23" height="23" xmlns="http://www.w3.org/2000/svg">
  <path d="m5,5.15l-1.1,3.45l4.2,6.6l3.2,2.8l4.8,-4.5l3,-4.1l-0.4,-3.6l-2.2,-1.8l-3.3,0.5l-1.8,1.3l-2.3,-1.7l-2.5,-0.1l-1.6,1.15z" fill="#ffffff" id="svg_5"/>
  <path d="m11.5,19.43l-1.28,-1.15c-1.48,-1.34 -2.71,-2.49 -3.68,-3.46c-0.97,-0.97 -1.75,-1.85 -2.32,-2.62c-0.57,-0.77 -0.97,-1.48 -1.2,-2.13c-0.23,-0.64 -0.34,-1.31 -0.34,-1.98c0,-1.38 0.46,-2.54 1.39,-3.46c0.92,-0.93 2.08,-1.39 3.46,-1.39c0.76,0 1.49,0.16 2.18,0.48c0.69,0.32 1.29,0.78 1.79,1.37c0.5,-0.59 1.1,-1.05 1.79,-1.37c0.69,-0.32 1.42,-0.48 2.18,-0.48c1.38,0 2.54,0.46 3.46,1.39c0.93,0.92 1.39,2.08 1.39,3.46c0,0.67 -0.11,1.34 -0.34,1.98c-0.23,0.65 -0.63,1.36 -1.2,2.13c-0.57,0.77 -1.35,1.65 -2.32,2.62c-0.97,0.97 -2.2,2.12 -3.68,3.46l-1.28,1.15zm0,-2.39c1.41,-1.26 2.57,-2.35 3.49,-3.25c0.91,-0.9 1.63,-1.69 2.16,-2.36c0.53,-0.67 0.89,-1.26 1.1,-1.79c0.21,-0.52 0.31,-1.04 0.31,-1.55c0,-0.88 -0.3,-1.62 -0.88,-2.21c-0.59,-0.59 -1.33,-0.88 -2.21,-0.88c-0.69,0 -1.33,0.19 -1.92,0.58c-0.59,0.39 -0.99,0.89 -1.21,1.49l-1.68,0c-0.22,-0.6 -0.62,-1.1 -1.21,-1.49c-0.59,-0.39 -1.23,-0.58 -1.92,-0.58c-0.88,0 -1.62,0.29 -2.21,0.88c-0.58,0.59 -0.88,1.33 -0.88,2.21c0,0.51 0.1,1.03 0.31,1.55c0.21,0.53 0.57,1.12 1.1,1.79c0.53,0.67 1.25,1.46 2.16,2.36c0.92,0.91 2.08,1.99 3.49,3.25z" id="svg_1"/>
</svg>
